<?xml version="1.0" standalone="no"?>
<svg xmlns="http://www.w3.org/2000/svg" xmlns:xlink="http://www.w3.org/1999/xlink" viewBox="0 0 45 100" width="45" height="25">
    <defs>
        <symbol id="path-debtors">
            <path d="M29.06,4.387h7.1a8,8,0,0,1,3.407.672A6.336,6.336,0,0,1,41.924,6.9,7.856,7.856,0,0,1,43.279,9.62a12.14,12.14,0,0,1,.444,3.336,12.136,12.136,0,0,1-.444,3.335,7.858,7.858,0,0,1-1.355,2.725,6.346,6.346,0,0,1-2.353,1.836,7.988,7.988,0,0,1-3.407.672h-7.1Zm3,14.688h2.952a7.5,7.5,0,0,0,2.868-.468,4.206,4.206,0,0,0,1.752-1.3,4.677,4.677,0,0,0,.863-1.944,12.022,12.022,0,0,0,.229-2.412,12.023,12.023,0,0,0-.229-2.412A4.669,4.669,0,0,0,39.632,8.6,4.2,4.2,0,0,0,37.88,7.3a7.488,7.488,0,0,0-2.868-.468H32.06Z"/>
        </symbol>
        <symbol id="path-creditors">
            <path d="M40.628,9.835A6.155,6.155,0,0,0,40.1,8.467,3.76,3.76,0,0,0,38,6.679a4.9,4.9,0,0,0-1.645-.252,4.8,4.8,0,0,0-2.364.552,4.628,4.628,0,0,0-1.619,1.476,6.643,6.643,0,0,0-.925,2.1,9.755,9.755,0,0,0,0,4.8,6.63,6.63,0,0,0,.925,2.1,4.625,4.625,0,0,0,1.619,1.477,4.8,4.8,0,0,0,2.364.552,4.262,4.262,0,0,0,1.776-.349,3.945,3.945,0,0,0,1.319-.96,4.506,4.506,0,0,0,.864-1.428A6.855,6.855,0,0,0,40.724,15h2.928a8.1,8.1,0,0,1-.66,2.808A6.875,6.875,0,0,1,41.468,20a6.741,6.741,0,0,1-2.256,1.428,7.8,7.8,0,0,1-2.856.5,8.088,8.088,0,0,1-3.444-.708,7.572,7.572,0,0,1-2.579-1.933,8.6,8.6,0,0,1-1.62-2.855,10.936,10.936,0,0,1,0-6.936,8.607,8.607,0,0,1,1.62-2.856A7.7,7.7,0,0,1,32.911,4.7a7.969,7.969,0,0,1,3.444-.72,9.067,9.067,0,0,1,2.712.4,7.015,7.015,0,0,1,2.244,1.152,5.985,5.985,0,0,1,1.572,1.836,6.412,6.412,0,0,1,.744,2.472Z"/>
        </symbol>
        <symbol id="path-accounts">
            <path d="M13.94,4.387h8.328a5.967,5.967,0,0,1,3.7,1.056,3.752,3.752,0,0,1,1.392,3.192,3.82,3.82,0,0,1-.636,2.22,4.088,4.088,0,0,1-1.812,1.428v.048a3.746,3.746,0,0,1,2.4,1.5,4.959,4.959,0,0,1,.815,2.916,4.9,4.9,0,0,1-.359,1.884,3.838,3.838,0,0,1-1.128,1.513,5.7,5.7,0,0,1-1.969,1.008,9.7,9.7,0,0,1-2.855.372H13.94Zm3,7.176h4.9a2.685,2.685,0,0,0,1.8-.612,2.189,2.189,0,0,0,.72-1.764,2.232,2.232,0,0,0-.648-1.824,2.9,2.9,0,0,0-1.871-.528h-4.9Zm0,7.512h5.3a2.989,2.989,0,0,0,2.124-.708,2.611,2.611,0,0,0,.756-2,2.5,2.5,0,0,0-.756-1.956,3.053,3.053,0,0,0-2.124-.684h-5.3Z"/>
            <path d="M32.8,15.812a3.825,3.825,0,0,0,.336,1.68,3.034,3.034,0,0,0,.936,1.14,3.979,3.979,0,0,0,1.38.648,6.688,6.688,0,0,0,1.692.2,5.418,5.418,0,0,0,1.68-.229,3.384,3.384,0,0,0,1.128-.588,2.122,2.122,0,0,0,.624-.828,2.473,2.473,0,0,0,.192-.947,2.048,2.048,0,0,0-.444-1.452,2.532,2.532,0,0,0-.972-.66,20.526,20.526,0,0,0-2.124-.636q-1.211-.3-2.988-.78a6.428,6.428,0,0,1-1.836-.756,4.381,4.381,0,0,1-1.164-1.044,3.667,3.667,0,0,1-.611-1.224,4.9,4.9,0,0,1-.181-1.32,4.466,4.466,0,0,1,.54-2.244A4.8,4.8,0,0,1,32.42,5.2a6.271,6.271,0,0,1,2.016-.924,8.846,8.846,0,0,1,2.28-.3,8.965,8.965,0,0,1,2.531.348,6.255,6.255,0,0,1,2.089,1.044,4.951,4.951,0,0,1,1.955,4.08h-3a2.89,2.89,0,0,0-1.128-2.34A4.476,4.476,0,0,0,36.6,6.427a5.6,5.6,0,0,0-1.08.108,3.42,3.42,0,0,0-1.008.36,2.2,2.2,0,0,0-.756.684,1.841,1.841,0,0,0-.3,1.08,1.838,1.838,0,0,0,.564,1.428,3.649,3.649,0,0,0,1.476.78q.1.024.756.2t1.477.4l1.6.42q.779.2,1.116.3a5.019,5.019,0,0,1,1.464.72,4.623,4.623,0,0,1,1.044,1.044,4.312,4.312,0,0,1,.624,1.26,4.619,4.619,0,0,1,.2,1.345,4.854,4.854,0,0,1-.588,2.46,5.009,5.009,0,0,1-1.548,1.668,6.724,6.724,0,0,1-2.185.947,10.431,10.431,0,0,1-2.5.3,10.264,10.264,0,0,1-2.76-.36,6.458,6.458,0,0,1-2.256-1.1A5.4,5.4,0,0,1,30.4,18.56a6.352,6.352,0,0,1-.6-2.748Z"/>
        </symbol>
        <symbol id="path-charges">
            <path d="M1.052,4.387h7.56a7.185,7.185,0,0,1,2.976.528,4.7,4.7,0,0,1,1.776,1.32,4.489,4.489,0,0,1,.852,1.728,7.348,7.348,0,0,1,.228,1.728,7.2,7.2,0,0,1-.228,1.716,4.491,4.491,0,0,1-.852,1.716,4.605,4.605,0,0,1-1.776,1.309,7.338,7.338,0,0,1-2.976.516H4.052v6.576h-3Zm3,8.112H8.444a3.907,3.907,0,0,0,1.032-.144,2.962,2.962,0,0,0,.972-.468,2.4,2.4,0,0,0,.72-.864,2.97,2.97,0,0,0,.276-1.356,3.512,3.512,0,0,0-.24-1.392,2.227,2.227,0,0,0-.648-.876,2.314,2.314,0,0,0-.936-.444,5.08,5.08,0,0,0-1.128-.12H4.052Z"/>
            <path d="M26.2,19.6a6.052,6.052,0,0,1-2.123,1.716,6.306,6.306,0,0,1-2.676.54,6.529,6.529,0,0,1-2.172-.349,4.989,4.989,0,0,1-1.716-1,4.391,4.391,0,0,1-1.116-1.6,5.522,5.522,0,0,1-.4-2.147,3.976,3.976,0,0,1,.336-1.656,5.2,5.2,0,0,1,.888-1.356,6.929,6.929,0,0,1,1.26-1.091A14.213,14.213,0,0,1,19.94,11.8q-.336-.431-.648-.852a6.6,6.6,0,0,1-.552-.876,4.962,4.962,0,0,1-.384-.96,3.815,3.815,0,0,1-.144-1.056,4.172,4.172,0,0,1,.324-1.68,3.851,3.851,0,0,1,.9-1.284,3.986,3.986,0,0,1,1.344-.828,4.6,4.6,0,0,1,1.632-.288,5.165,5.165,0,0,1,1.6.252,3.764,3.764,0,0,1,2.315,2.052,4.2,4.2,0,0,1,.36,1.8A3.875,3.875,0,0,1,26.432,9.5a4.712,4.712,0,0,1-.672,1.188,5.414,5.414,0,0,1-.984.972,8.847,8.847,0,0,1-1.187.768l2.664,3.216q.144-.409.288-.937a9.394,9.394,0,0,0,.239-1.368h2.4a12.137,12.137,0,0,1-.444,2.208,8.011,8.011,0,0,1-.9,1.992l3.288,3.984h-3.36Zm-4.823-6q-.385.24-.84.479a4.1,4.1,0,0,0-.852.6,3.278,3.278,0,0,0-.672.863,2.628,2.628,0,0,0-.276,1.272,2.811,2.811,0,0,0,.78,2.136,2.751,2.751,0,0,0,1.98.744,3.406,3.406,0,0,0,2.172-.7,3.253,3.253,0,0,0,.624-.624q.252-.335.443-.6Zm1.1-7.584a1.781,1.781,0,0,0-1.3.516,1.841,1.841,0,0,0-.528,1.38,2.046,2.046,0,0,0,.156.8,4.408,4.408,0,0,0,.384.72,7.873,7.873,0,0,0,.5.684q.276.336.516.648.384-.264.744-.54a4.606,4.606,0,0,0,.647-.6,2.55,2.55,0,0,0,.456-.732,2.37,2.37,0,0,0,.168-.912,2.094,2.094,0,0,0-.479-1.4A1.588,1.588,0,0,0,22.484,6.02Z"/>
            <path d="M32.611,4.387h3V18.932h8.712v2.592H32.611Z"/>
        </symbol>
    </defs>

    <view id="debtors" viewBox="0 0 45 25"/>
    <view id="creditors" viewBox="0 25 45 25"/>
    <view id="accounts" viewBox="0 50 45 25"/>
    <view id="charges" viewBox="0 75 45 25"/>

    <use xlink:href="#path-debtors" x="0" y="0" fill="#2979ff"/>
    <use xlink:href="#path-creditors" x="0" y="25" fill="#2979ff"/>
    <use xlink:href="#path-accounts" x="0" y="50" fill="#2979ff"/>
    <use xlink:href="#path-charges" x="0" y="75" fill="#2979ff"/>
</svg>
