<?xml version="1.0" encoding="UTF-8" standalone="no"?>
<!DOCTYPE svg PUBLIC "-//W3C//DTD SVG 1.1//EN" "http://www.w3.org/Graphics/SVG/1.1/DTD/svg11.dtd">
<svg width="100%" height="100%" viewBox="0 0 24 25" version="1.1" xmlns="http://www.w3.org/2000/svg" xmlns:xlink="http://www.w3.org/1999/xlink" xml:space="preserve" style="fill-rule:evenodd;clip-rule:evenodd;stroke-linejoin:round;stroke-miterlimit:1.41421;">
    <g transform="matrix(1,0,0,1,-5500,-661)">
        <g transform="matrix(1,0,0,0.776307,704.549,-282)">
            <g id="Bank-Interface-Icon" transform="matrix(1,0,0,1.28815,4795.45,1215.25)">
                <path d="M18,7L18,0L0,0L0,18L6,18L6,24L24,24L24,7L18,7ZM6,16L2,16L2,5L16,5L16,7L6,7L6,16ZM22,22L8,22L8,12L22,12L22,22Z" style="fill:rgb(137,137,137);fill-rule:nonzero;"/>
            </g>
        </g>
    </g>
</svg>
