<?xml version="1.0" encoding="UTF-8" standalone="no"?>
<!DOCTYPE svg PUBLIC "-//W3C//DTD SVG 1.1//EN" "http://www.w3.org/Graphics/SVG/1.1/DTD/svg11.dtd">
<svg width="100%" height="100%" viewBox="0 0 31 21" version="1.1" xmlns="http://www.w3.org/2000/svg" xmlns:xlink="http://www.w3.org/1999/xlink" xml:space="preserve" style="fill-rule:evenodd;clip-rule:evenodd;stroke-linejoin:round;stroke-miterlimit:1.41421;">
    <g transform="matrix(1,0,0,1,-4950,-2425)">
        <g transform="matrix(1,0,0,1,1956.18,415.149)">
            <g transform="matrix(1.25,0,0,1.25,2994,2005.52)">
                <path d="M19.5,11C17.015,11 15,13.015 15,15.5C15,17.985 17.015,20 19.5,20C21.985,20 24,17.985 24,15.5C24,13.015 21.985,11 19.5,11ZM19.031,17.484L17.343,15.847L18.039,15.15L19.03,16.09L21.146,13.921L21.842,14.617L19.031,17.484L19.031,17.484ZM4,15L9,15L9,16L4,16L4,15L4,15ZM12,14L4,14L4,13L12,13L12,14ZM13.502,18L2.5,18C2.224,18 2,17.776 2,17.5L2,11L14.82,11C16.004,9.77 17.662,9 19.5,9C20.386,9 21.229,9.179 22,9.501L22,6C22,4.896 21.104,4 20,4L2,4C0.896,4 0,4.896 0,6L0,18C0,19.104 0.896,20 2,20L14.82,20C14.267,19.424 13.814,18.749 13.502,18L13.502,18ZM2,6.5C2,6.224 2.224,6 2.5,6L19.5,6C19.776,6 20,6.224 20,6.5L20,8L2,8L2,6.5L2,6.5Z" style="fill:rgb(24,204,48);fill-rule:nonzero;"/>
            </g>
        </g>
    </g>
</svg>
