<svg viewBox="0 0 31 20" xmlns="http://www.w3.org/2000/svg" fill-rule="evenodd" clip-rule="evenodd" stroke-linejoin="round" stroke-miterlimit="1.414"><g transform="matrix(1 0 0 .7763 -4786.451 -947)"><path d="M0 8V6a2 2 0 0 1 2-2h18a2 2 0 0 1 2 2v2H0zm24 7.5a4.5 4.5 0 1 1-9 0 4.5 4.5 0 0 1 9 0zm-2.156-.882l-.696-.696-2.116 2.169-.991-.94-.696.697 1.688 1.637 2.811-2.867zM13 15.5c0 1.747.696 3.331 1.82 4.5H2a2 2 0 0 1-2-2v-7h14.82A6.474 6.474 0 0 0 13 15.5zM8 16H3v1h5v-1zm3-2H3v1h8v-1z" fill="#18cc30" fill-rule="nonzero" transform="matrix(1.25 0 0 1.61019 4787.09 1213.44)" id="Payments-Icon"/></g></svg>