<svg viewBox="0 0 31 21" xmlns="http://www.w3.org/2000/svg" fill-rule="evenodd" clip-rule="evenodd" stroke-linejoin="round" stroke-miterlimit="1.414"><path d="M24.555 9.419a5.625 5.625 0 1 0 0 11.25 5.625 5.625 0 0 0 0-11.25zm-.586 8.105l-2.11-2.046.87-.872 1.239 1.175 2.645-2.71.87.87-3.514 3.583zM5.18 14.419h6.25v1.25H5.18v-1.25zm10-1.25h-10v-1.25h10v1.25zm1.878 5H3.305a.625.625 0 0 1-.625-.625V9.419h16.025a8.099 8.099 0 0 1 8.975-1.874V3.17a2.5 2.5 0 0 0-2.5-2.5H2.68a2.5 2.5 0 0 0-2.5 2.5v15a2.5 2.5 0 0 0 2.5 2.5h16.025a8.134 8.134 0 0 1-1.647-2.5zM2.68 3.794c0-.345.28-.625.625-.625h21.25c.345 0 .625.28.625.625v1.875H2.68V3.794z" fill="#18cc30" fill-rule="nonzero"/></svg>