<svg viewBox="0 0 40 41" xmlns="http://www.w3.org/2000/svg" fill-rule="evenodd" clip-rule="evenodd" stroke-linejoin="round" stroke-miterlimit="1.414"><g transform="matrix(1 0 0 1.00068 -604.871 -1351.264)"><path d="M10 19h10v1H10v-1zM24 6v18H6v-6H0V0h18v6h6zM6 6h10V2H2v14h4V6zm16 2h-1.93c-.669 0-1.293.334-1.664.891L17 11h-3.93l-1.406-2.109A1.998 1.998 0 0 0 10 8H8v14h14V8zm-12 6h10v-1H10v1zm0 3h10v-1H10v1z" fill="#1e1e1e" fill-rule="nonzero" transform="translate(604.872 1350.49) scale(1.66667)" id="Icon"/></g></svg>